<?xml version="1.0" encoding="utf-8"?>
<!-- Generator: Adobe Illustrator 24.1.0, SVG Export Plug-In . SVG Version: 6.00 Build 0)  -->
<svg version="1.1" id="Capa_1" xmlns="http://www.w3.org/2000/svg" xmlns:xlink="http://www.w3.org/1999/xlink" x="0px" y="0px"
	 viewBox="0 0 26.06 26.06" style="enable-background:new 0 0 26.06 26.06;" xml:space="preserve">
<style type="text/css">
	.st0{fill:#E4E3E3;}
	.st1{enable-background:new    ;}
	.st2{fill:#1C6476;}
	.st3{fill:#1D7081;}
	.st4{fill:#226073;}
	.st5{fill:#235169;}
	.st6{fill:#457E8D;}
	.st7{fill:#E7356F;}
	.st8{fill:#232A50;}
	.st9{fill:#23415D;}
	.st10{fill:#E41816;}
	.st11{fill:#E94D16;}
	.st12{fill:#F4F7F8;}
	.st13{fill:#1D2122;}
	.st14{fill:#DCE5E7;}
	.st15{fill:#B0CCD2;}
	.st16{fill:#F49816;}
	.st17{fill:#BED4D9;}
	.st18{fill:#7F2684;}
	.st19{fill:#F08218;}
	.st20{fill:#EEEEEE;}
	.st21{fill:#FEFDFE;}
	.st22{fill:#E2890A;}
	.st23{fill:#FFFFFF;}
	.st24{fill:#FAFAFA;}
	.st25{fill:#CCCBCB;}
	.st26{fill-rule:evenodd;clip-rule:evenodd;fill:#CCCBCB;}
</style>
<path id="Trazado_2073_1_" class="st0" d="M12.42,15.82c-0.04,0.04-0.07,0.08-0.1,0.13c-0.03,0.05-0.06,0.1-0.08,0.15
	c-0.02,0.05-0.04,0.1-0.05,0.15c0,0.06,0,0.11,0,0.17c0,0.11,0.02,0.22,0.07,0.32c0.08,0.21,0.25,0.38,0.46,0.46
	c0.21,0.09,0.44,0.09,0.65,0c0.21-0.08,0.38-0.25,0.46-0.46c0.18-0.44-0.04-0.94-0.48-1.12C13.03,15.5,12.67,15.58,12.42,15.82
	L12.42,15.82z M13.03,4.53c-4.69,0-8.5,3.8-8.5,8.5s3.8,8.5,8.5,8.5s8.5-3.8,8.5-8.5l0,0C21.53,8.34,17.72,4.53,13.03,4.53z
	 M13.03,19.83c-3.75,0-6.8-3.04-6.8-6.8s3.04-6.8,6.8-6.8s6.8,3.04,6.8,6.8c0,0,0,0,0,0C19.83,16.78,16.78,19.83,13.03,19.83z
	 M13.03,8.78c-0.91,0-1.75,0.49-2.21,1.27c-0.25,0.4-0.14,0.92,0.26,1.17c0.4,0.25,0.92,0.14,1.17-0.26
	c0.01-0.02,0.03-0.04,0.04-0.06c0.23-0.41,0.75-0.55,1.16-0.31c0.41,0.23,0.55,0.75,0.31,1.16c-0.15,0.26-0.43,0.43-0.74,0.43
	c-0.47,0-0.85,0.38-0.85,0.85v0.85c0.01,0.47,0.39,0.84,0.86,0.84c0.46-0.01,0.83-0.38,0.84-0.84v-0.15
	c1.32-0.48,2.01-1.94,1.53-3.26C15.05,9.46,14.1,8.79,13.03,8.78z"/>
</svg>
